<mxfile host="app.diagrams.net" modified="2021-09-19T08:03:41.836Z" agent="5.0 (Windows)" etag="-ZM39aJCVc_I4q4HDjor" version="15.2.9" type="github">
  <diagram id="C5RBs43oDa-KdzZeNtuy" name="Page-1">
    <mxGraphModel dx="1422" dy="780" grid="1" gridSize="10" guides="1" tooltips="1" connect="1" arrows="1" fold="1" page="1" pageScale="1" pageWidth="827" pageHeight="1169" math="0" shadow="0">
      <root>
        <mxCell id="WIyWlLk6GJQsqaUBKTNV-0" />
        <mxCell id="WIyWlLk6GJQsqaUBKTNV-1" parent="WIyWlLk6GJQsqaUBKTNV-0" />
        <mxCell id="6bA-ptrf7z8_-oPJFV3i-5" value="&lt;font face=&quot;Helvetica&quot;&gt;Paros&lt;/font&gt;" style="swimlane;fontStyle=0;align=center;verticalAlign=top;childLayout=stackLayout;horizontal=1;startSize=30;horizontalStack=0;resizeParent=1;resizeParentMax=0;resizeLast=0;collapsible=0;marginBottom=0;html=1;" parent="WIyWlLk6GJQsqaUBKTNV-1" vertex="1">
          <mxGeometry x="520" y="360" width="240" height="150" as="geometry" />
        </mxCell>
        <mxCell id="6bA-ptrf7z8_-oPJFV3i-10" value="" style="line;strokeWidth=1;fillColor=none;align=left;verticalAlign=middle;spacingTop=-1;spacingLeft=3;spacingRight=3;rotatable=0;labelPosition=right;points=[];portConstraint=eastwest;" parent="6bA-ptrf7z8_-oPJFV3i-5" vertex="1">
          <mxGeometry y="30" width="240" height="8" as="geometry" />
        </mxCell>
        <mxCell id="6bA-ptrf7z8_-oPJFV3i-12" value="&lt;div&gt;&lt;font face=&quot;Helvetica&quot;&gt;+ &lt;u&gt;main(args String[]): void&lt;br&gt;&lt;/u&gt;&lt;/font&gt;&lt;/div&gt;&lt;div&gt;&lt;font face=&quot;Helvetica&quot;&gt;-&amp;nbsp; init(args String[]): void&lt;br&gt;&lt;/font&gt;&lt;/div&gt;&lt;div&gt;&lt;font face=&quot;Helvetica&quot;&gt;-&amp;nbsp; run(): void&lt;br&gt;&lt;/font&gt;&lt;/div&gt;&lt;div&gt;&lt;font face=&quot;Helvetica&quot;&gt;-&amp;nbsp; runCommandLine(): void&lt;br&gt;&lt;/font&gt;&lt;/div&gt;&lt;div&gt;&lt;font face=&quot;Helvetica&quot;&gt;-&amp;nbsp; runGUI(): void&lt;br&gt;&lt;/font&gt;&lt;/div&gt;&lt;div&gt;&lt;font face=&quot;Helvetica&quot;&gt;-&amp;nbsp; showLicense(): void&lt;br&gt;&lt;/font&gt;&lt;/div&gt;&lt;div&gt;&lt;font face=&quot;Helvetica&quot;&gt;-&amp;nbsp; checkUpdate(): void&lt;br&gt;&lt;/font&gt;&lt;/div&gt;" style="text;html=1;strokeColor=none;fillColor=none;align=left;verticalAlign=middle;spacingLeft=4;spacingRight=4;overflow=hidden;rotatable=0;points=[[0,0.5],[1,0.5]];portConstraint=eastwest;" parent="6bA-ptrf7z8_-oPJFV3i-5" vertex="1">
          <mxGeometry y="38" width="240" height="112" as="geometry" />
        </mxCell>
        <mxCell id="6bA-ptrf7z8_-oPJFV3i-13" value="&lt;font face=&quot;Tahoma&quot;&gt;Paros&lt;/font&gt;" style="swimlane;fontStyle=0;align=center;verticalAlign=top;childLayout=stackLayout;horizontal=1;startSize=30;horizontalStack=0;resizeParent=1;resizeParentMax=0;resizeLast=0;collapsible=0;marginBottom=0;html=1;" parent="WIyWlLk6GJQsqaUBKTNV-1" vertex="1">
          <mxGeometry x="80" y="260" width="140" height="78" as="geometry" />
        </mxCell>
        <mxCell id="6bA-ptrf7z8_-oPJFV3i-15" value="&lt;font face=&quot;Tahoma&quot;&gt;attribute1&lt;/font&gt;" style="text;html=1;strokeColor=none;fillColor=none;align=left;verticalAlign=middle;spacingLeft=4;spacingRight=4;overflow=hidden;rotatable=0;points=[[0,0.5],[1,0.5]];portConstraint=eastwest;" parent="6bA-ptrf7z8_-oPJFV3i-13" vertex="1">
          <mxGeometry y="30" width="140" height="20" as="geometry" />
        </mxCell>
        <mxCell id="6bA-ptrf7z8_-oPJFV3i-16" value="" style="line;strokeWidth=1;fillColor=none;align=left;verticalAlign=middle;spacingTop=-1;spacingLeft=3;spacingRight=3;rotatable=0;labelPosition=right;points=[];portConstraint=eastwest;" parent="6bA-ptrf7z8_-oPJFV3i-13" vertex="1">
          <mxGeometry y="50" width="140" height="8" as="geometry" />
        </mxCell>
        <mxCell id="6bA-ptrf7z8_-oPJFV3i-18" value="&lt;font face=&quot;Tahoma&quot;&gt;operation1&lt;/font&gt;" style="text;html=1;strokeColor=none;fillColor=none;align=left;verticalAlign=middle;spacingLeft=4;spacingRight=4;overflow=hidden;rotatable=0;points=[[0,0.5],[1,0.5]];portConstraint=eastwest;" parent="6bA-ptrf7z8_-oPJFV3i-13" vertex="1">
          <mxGeometry y="58" width="140" height="20" as="geometry" />
        </mxCell>
        <mxCell id="6bA-ptrf7z8_-oPJFV3i-25" value="&lt;font face=&quot;Helvetica&quot;&gt;Constant&lt;/font&gt;" style="swimlane;fontStyle=0;align=center;verticalAlign=top;childLayout=stackLayout;horizontal=1;startSize=30;horizontalStack=0;resizeParent=1;resizeParentMax=0;resizeLast=0;collapsible=0;marginBottom=0;html=1;" parent="WIyWlLk6GJQsqaUBKTNV-1" vertex="1">
          <mxGeometry x="880" y="370" width="280" height="230" as="geometry" />
        </mxCell>
        <mxCell id="6bA-ptrf7z8_-oPJFV3i-27" value="&lt;div&gt;&lt;font face=&quot;Helvetica&quot;&gt;&lt;u&gt;+ int MAX_HOST_CONNECTION&lt;br&gt;&lt;/u&gt;&lt;/font&gt;&lt;/div&gt;&lt;div&gt;&lt;font face=&quot;Helvetica&quot;&gt;&lt;u&gt;-&amp;nbsp; boolean staticSP&lt;br&gt;&lt;/u&gt;&lt;/font&gt;&lt;/div&gt;&lt;div&gt;&lt;font face=&quot;Helvetica&quot;&gt;&lt;u&gt;-&amp;nbsp; Pattern patternWindows&lt;br&gt;&lt;/u&gt;&lt;/font&gt;&lt;/div&gt;" style="text;html=1;strokeColor=none;fillColor=none;align=left;verticalAlign=middle;spacingLeft=4;spacingRight=4;overflow=hidden;rotatable=0;points=[[0,0.5],[1,0.5]];portConstraint=eastwest;" parent="6bA-ptrf7z8_-oPJFV3i-25" vertex="1">
          <mxGeometry y="30" width="280" height="60" as="geometry" />
        </mxCell>
        <mxCell id="6bA-ptrf7z8_-oPJFV3i-28" value="" style="line;strokeWidth=1;fillColor=none;align=left;verticalAlign=middle;spacingTop=-1;spacingLeft=3;spacingRight=3;rotatable=0;labelPosition=right;points=[];portConstraint=eastwest;" parent="6bA-ptrf7z8_-oPJFV3i-25" vertex="1">
          <mxGeometry y="90" width="280" height="8" as="geometry" />
        </mxCell>
        <mxCell id="6bA-ptrf7z8_-oPJFV3i-30" value="&lt;div&gt;&lt;font face=&quot;Helvetica&quot;&gt;+ &lt;u&gt;getEyeCatcher(): String&lt;br&gt;&lt;/u&gt;&lt;/font&gt;&lt;/div&gt;&lt;div&gt;&lt;font face=&quot;Helvetica&quot;&gt;+ &lt;u&gt;setEyeCatcher(eyeCatcher: String): void&lt;br&gt;&lt;/u&gt;&lt;/font&gt;&lt;/div&gt;&lt;div&gt;&lt;font face=&quot;Helvetica&quot;&gt;+ &lt;u&gt;setSP(isSP: boolean): void&lt;br&gt;&lt;/u&gt;&lt;/font&gt;&lt;/div&gt;&lt;div&gt;&lt;font face=&quot;Helvetica&quot;&gt;+ &lt;u&gt;isSP(): boolean&lt;/u&gt;&lt;br&gt;&lt;/font&gt;&lt;/div&gt;&lt;div&gt;&lt;font face=&quot;Helvetica&quot;&gt;+ Constant()&lt;br&gt;&lt;/font&gt;&lt;/div&gt;&lt;div&gt;&lt;font face=&quot;Helvetica&quot;&gt;+ &lt;u&gt;getInstance(): Constant&lt;/u&gt;&lt;/font&gt;&lt;/div&gt;&lt;div&gt;&lt;font face=&quot;Helvetica&quot;&gt;+ &lt;u&gt;isWindows(): boolean&lt;/u&gt;&lt;br&gt;&lt;/font&gt;&lt;/div&gt;&lt;div&gt;&lt;font face=&quot;Helvetica&quot;&gt;+ &lt;u&gt;isLinux(): boolean&lt;/u&gt;&lt;br&gt;&lt;/font&gt;&lt;/div&gt;" style="text;html=1;strokeColor=none;fillColor=none;align=left;verticalAlign=middle;spacingLeft=4;spacingRight=4;overflow=hidden;rotatable=0;points=[[0,0.5],[1,0.5]];portConstraint=eastwest;" parent="6bA-ptrf7z8_-oPJFV3i-25" vertex="1">
          <mxGeometry y="98" width="280" height="132" as="geometry" />
        </mxCell>
        <mxCell id="6bA-ptrf7z8_-oPJFV3i-31" value="&lt;font face=&quot;Tahoma&quot;&gt;&lt;i&gt;FileXML&lt;/i&gt;&lt;/font&gt;" style="swimlane;fontStyle=0;align=center;verticalAlign=top;childLayout=stackLayout;horizontal=1;startSize=30;horizontalStack=0;resizeParent=1;resizeParentMax=0;resizeLast=0;collapsible=0;marginBottom=0;html=1;" parent="WIyWlLk6GJQsqaUBKTNV-1" vertex="1">
          <mxGeometry x="200" y="560" width="360" height="460" as="geometry" />
        </mxCell>
        <mxCell id="6bA-ptrf7z8_-oPJFV3i-33" value="&lt;div&gt;&lt;font face=&quot;Helvetica&quot;&gt;# doc: Document&lt;/font&gt;&lt;/div&gt;&lt;div&gt;&lt;font face=&quot;Helvetica&quot;&gt;# docBuilder: DocumentBuilder&lt;/font&gt;&lt;/div&gt;&lt;div&gt;&lt;font face=&quot;Helvetica&quot;&gt;# docBuilderFactory: DocumentBuilderFactory&lt;br&gt;&lt;/font&gt;&lt;/div&gt;" style="text;html=1;strokeColor=none;fillColor=none;align=left;verticalAlign=middle;spacingLeft=4;spacingRight=4;overflow=hidden;rotatable=0;points=[[0,0.5],[1,0.5]];portConstraint=eastwest;" parent="6bA-ptrf7z8_-oPJFV3i-31" vertex="1">
          <mxGeometry y="30" width="360" height="60" as="geometry" />
        </mxCell>
        <mxCell id="6bA-ptrf7z8_-oPJFV3i-34" value="" style="line;strokeWidth=1;fillColor=none;align=left;verticalAlign=middle;spacingTop=-1;spacingLeft=3;spacingRight=3;rotatable=0;labelPosition=right;points=[];portConstraint=eastwest;" parent="6bA-ptrf7z8_-oPJFV3i-31" vertex="1">
          <mxGeometry y="90" width="360" height="8" as="geometry" />
        </mxCell>
        <mxCell id="6bA-ptrf7z8_-oPJFV3i-36" value="&lt;div&gt;&lt;font face=&quot;Helvetica&quot;&gt;+ FileXML(rootElementName: String)&lt;/font&gt;&lt;/div&gt;&lt;div&gt;&lt;font face=&quot;Helvetica&quot;&gt;+ getDocument(): Document&lt;/font&gt;&lt;/div&gt;&lt;div&gt;&lt;font face=&quot;Helvetica&quot;&gt;# getElement(base: Element, childTag: String): Element&lt;/font&gt;&lt;/div&gt;&lt;div&gt;&lt;font face=&quot;Helvetica&quot;&gt;# getElement(tag: String) Element&lt;/font&gt;&lt;/div&gt;&lt;div&gt;&lt;font face=&quot;Helvetica&quot;&gt;# getElement(path: String[]): Element&lt;br&gt;&lt;/font&gt;&lt;/div&gt;&lt;div&gt;&lt;font face=&quot;Helvetica&quot;&gt;# getElements(base: Element, childTag: String): Element[]&lt;br&gt;&lt;/font&gt;&lt;/div&gt;&lt;div&gt;&lt;font face=&quot;Helvetica&quot;&gt;# getElements(tagName: String&lt;span style=&quot;white-space: pre&quot;&gt;&lt;/span&gt;): Element[]&lt;/font&gt;&lt;/div&gt;&lt;div&gt;&lt;font face=&quot;Helvetica&quot;&gt;# getElements(path: String[]): Element[]&lt;/font&gt;&lt;/div&gt;&lt;div&gt;&lt;font face=&quot;Helvetica&quot;&gt;-&amp;nbsp; getText(element: Element): String&lt;/font&gt;&lt;/div&gt;&lt;div&gt;&lt;font face=&quot;Helvetica&quot;&gt;# getValue(base: Element, tag: String): String&lt;br&gt;&lt;/font&gt;&lt;/div&gt;&lt;div&gt;&lt;font face=&quot;Helvetica&quot;&gt;# getValue(tag: String): String&lt;span style=&quot;white-space: pre&quot;&gt;&lt;br&gt;&lt;/span&gt;&lt;/font&gt;&lt;/div&gt;&lt;div&gt;&lt;font face=&quot;Helvetica&quot;&gt;&lt;span style=&quot;white-space: pre&quot;&gt;# getValues(tag: String): List&lt;/span&gt;&lt;/font&gt;&lt;/div&gt;&lt;div&gt;&lt;font face=&quot;Helvetica&quot;&gt;&lt;span style=&quot;white-space: pre&quot;&gt;# &lt;i&gt;parse(): void&lt;/i&gt;&lt;/span&gt;&lt;/font&gt;&lt;/div&gt;&lt;div&gt;&lt;font face=&quot;Helvetica&quot;&gt;&lt;span style=&quot;white-space: pre&quot;&gt;+ readAndParseFile(fileName: String): void&lt;/span&gt;&lt;br&gt;&lt;/font&gt;&lt;/div&gt;&lt;div&gt;&lt;font face=&quot;Helvetica&quot;&gt;# readFile(fileName: String): void&lt;/font&gt;&lt;/div&gt;&lt;div&gt;&lt;font face=&quot;Helvetica&quot;&gt;+ saveFile(fileName: String): void&lt;br&gt;&lt;/font&gt;&lt;/div&gt;&lt;div&gt;&lt;font face=&quot;Helvetica&quot;&gt;+ setDocument(doc: Document): void&lt;br&gt;&lt;/font&gt;&lt;/div&gt;&lt;div&gt;&lt;font face=&quot;Helvetica&quot;&gt;# setValue(tagName: String, value: String): void&lt;br&gt;&lt;/font&gt;&lt;/div&gt;&lt;div&gt;&lt;font face=&quot;Helvetica&quot;&gt;# setValue(path: String[], value: String): void&lt;br&gt;&lt;/font&gt;&lt;/div&gt;&lt;div&gt;&lt;font face=&quot;Helvetica&quot;&gt;# removeElement(base: Element, tag: String): void&lt;/font&gt;&lt;/div&gt;&lt;div&gt;&lt;font face=&quot;Helvetica&quot;&gt;# removeElement(tag: String): void&lt;/font&gt;&lt;/div&gt;&lt;div&gt;&lt;font face=&quot;Helvetica&quot;&gt;# addElement(base: Element, tag: String, value: String): Element&lt;/font&gt;&lt;/div&gt;&lt;div&gt;&lt;font face=&quot;Helvetica&quot;&gt;# addElement(base: Element, tag: String): Element&lt;br&gt;&lt;/font&gt;&lt;/div&gt;# addElement(tag: String): Element" style="text;html=1;strokeColor=none;fillColor=none;align=left;verticalAlign=middle;spacingLeft=4;spacingRight=4;overflow=hidden;rotatable=0;points=[[0,0.5],[1,0.5]];portConstraint=eastwest;" parent="6bA-ptrf7z8_-oPJFV3i-31" vertex="1">
          <mxGeometry y="98" width="360" height="362" as="geometry" />
        </mxCell>
        <mxCell id="ZhgNdsWSCMvSc8Cf2Miy-0" value="&lt;i&gt;AbstractParam&lt;/i&gt;" style="swimlane;fontStyle=0;align=center;verticalAlign=top;childLayout=stackLayout;horizontal=1;startSize=30;horizontalStack=0;resizeParent=1;resizeParentMax=0;resizeLast=0;collapsible=0;marginBottom=0;html=1;" vertex="1" parent="WIyWlLk6GJQsqaUBKTNV-1">
          <mxGeometry x="600" y="640" width="280" height="150" as="geometry" />
        </mxCell>
        <mxCell id="ZhgNdsWSCMvSc8Cf2Miy-1" value="-&amp;nbsp; config: FileConfiguration" style="text;html=1;strokeColor=none;fillColor=none;align=left;verticalAlign=middle;spacingLeft=4;spacingRight=4;overflow=hidden;rotatable=0;points=[[0,0.5],[1,0.5]];portConstraint=eastwest;" vertex="1" parent="ZhgNdsWSCMvSc8Cf2Miy-0">
          <mxGeometry y="30" width="280" height="30" as="geometry" />
        </mxCell>
        <mxCell id="ZhgNdsWSCMvSc8Cf2Miy-2" value="" style="line;strokeWidth=1;fillColor=none;align=left;verticalAlign=middle;spacingTop=-1;spacingLeft=3;spacingRight=3;rotatable=0;labelPosition=right;points=[];portConstraint=eastwest;" vertex="1" parent="ZhgNdsWSCMvSc8Cf2Miy-0">
          <mxGeometry y="60" width="280" height="8" as="geometry" />
        </mxCell>
        <mxCell id="ZhgNdsWSCMvSc8Cf2Miy-3" value="&lt;div&gt;+ load(config: FileConfiguration): void&lt;/div&gt;&lt;div&gt;+ load(fileName: String): void&lt;/div&gt;&lt;div&gt;+ load(): void&lt;/div&gt;&lt;div&gt;+ getConfig(): FileConfiguration&lt;/div&gt;&lt;div&gt;# &lt;i&gt;parse(): void&lt;/i&gt;&lt;br&gt;&lt;/div&gt;" style="text;html=1;strokeColor=none;fillColor=none;align=left;verticalAlign=middle;spacingLeft=4;spacingRight=4;overflow=hidden;rotatable=0;points=[[0,0.5],[1,0.5]];portConstraint=eastwest;" vertex="1" parent="ZhgNdsWSCMvSc8Cf2Miy-0">
          <mxGeometry y="68" width="280" height="82" as="geometry" />
        </mxCell>
        <mxCell id="ZhgNdsWSCMvSc8Cf2Miy-4" value="Database" style="swimlane;fontStyle=0;align=center;verticalAlign=top;childLayout=stackLayout;horizontal=1;startSize=30;horizontalStack=0;resizeParent=1;resizeParentMax=0;resizeLast=0;collapsible=0;marginBottom=0;html=1;" vertex="1" parent="WIyWlLk6GJQsqaUBKTNV-1">
          <mxGeometry x="1020" y="680" width="380" height="260" as="geometry" />
        </mxCell>
        <mxCell id="ZhgNdsWSCMvSc8Cf2Miy-5" value="&lt;div&gt;-&amp;nbsp; &lt;u&gt;database: Database&lt;br&gt;&lt;/u&gt;&lt;/div&gt;&lt;div&gt;-&amp;nbsp; databaseServer: DatabaseServer&lt;br&gt;&lt;/div&gt;-&amp;nbsp; listenerList: Vector" style="text;html=1;strokeColor=none;fillColor=none;align=left;verticalAlign=middle;spacingLeft=4;spacingRight=4;overflow=hidden;rotatable=0;points=[[0,0.5],[1,0.5]];portConstraint=eastwest;" vertex="1" parent="ZhgNdsWSCMvSc8Cf2Miy-4">
          <mxGeometry y="30" width="380" height="60" as="geometry" />
        </mxCell>
        <mxCell id="ZhgNdsWSCMvSc8Cf2Miy-6" value="" style="line;strokeWidth=1;fillColor=none;align=left;verticalAlign=middle;spacingTop=-1;spacingLeft=3;spacingRight=3;rotatable=0;labelPosition=right;points=[];portConstraint=eastwest;" vertex="1" parent="ZhgNdsWSCMvSc8Cf2Miy-4">
          <mxGeometry y="90" width="380" height="8" as="geometry" />
        </mxCell>
        <mxCell id="ZhgNdsWSCMvSc8Cf2Miy-7" value="&lt;div&gt;+ Database()&lt;/div&gt;&lt;div&gt;+ getDatabaseServer(): DatabaseServer&lt;/div&gt;&lt;div&gt;-&amp;nbsp; setDatabaseServer(databaseServer: Database:Server): void&lt;br&gt;&lt;/div&gt;&lt;div&gt;-&amp;nbsp; setTableHistory(tableHistory: TableHistory): void&lt;br&gt;&lt;/div&gt;" style="text;html=1;strokeColor=none;fillColor=none;align=left;verticalAlign=middle;spacingLeft=4;spacingRight=4;overflow=hidden;rotatable=0;points=[[0,0.5],[1,0.5]];portConstraint=eastwest;" vertex="1" parent="ZhgNdsWSCMvSc8Cf2Miy-4">
          <mxGeometry y="98" width="380" height="162" as="geometry" />
        </mxCell>
      </root>
    </mxGraphModel>
  </diagram>
</mxfile>
